<svg xmlns="http://www.w3.org/2000/svg" viewBox="0 0 105.5 104.7"><defs><style>.cls-1{fill:#0d71fa;}.cls-2{fill:#f82dd4;}</style></defs><g id="Layer_2" data-name="Layer 2"><g id="svg859"><path id="path841" class="cls-1" d="M45.5.5C18.8,4.1,0,25.8,0,53,0,68,5.1,80.7,15.3,90.7c5.9,5.8,16.6,11.9,23.5,13.3l3.2.7V93.6c0-6.1-.4-11.1-.9-11.1s-2.9-1.9-5.5-4.1c-5-4.4-9-11.2-10.1-17.2l-.7-3.7,40.3-.2,40.4-.3-.3-7.5c-.4-12.9-4.5-23.5-12.3-32.4C81.8,4.5,63.5-1.9,45.5.5ZM66,23.3c4.8,2.5,12,10.5,12,13.3,0,.5-11,.9-25,.9-20.4,0-25-.2-25-1.4,0-2.6,8.4-10.9,13.5-13.2C48.9,19.4,59,19.5,66,23.3Z"></path><path id="path855" class="cls-2" d="M71,76.3a17.87,17.87,0,0,0-5.8,5.2c-2,2.9-2.3,4.4-2,9.4.4,5.4.8,6.2,4.6,9.7s4.6,3.9,9.5,3.9c9.7,0,16.2-6.8,15.4-16.1A14.71,14.71,0,0,0,71,76.3Z"></path></g></g></svg>